<svg viewBox="0 0 16 16" width="16px" height="16px"><path fill="#828282" d="M415.675 49.986 C 359.335 57.112,321.091 88.995,298.372 147.777 C 293.550 160.254,292.952 163.620,295.750 162.536 C 320.794 152.836,348.418 153.525,358.836 164.110 C 377.372 182.944,364.376 222.884,320.638 281.500 C 292.174 319.647,278.278 322.650,264.164 293.702 C 252.248 269.263,244.374 237.281,231.985 163.000 C 222.526 106.291,217.546 90.421,204.337 74.903 C 181.249 47.777,148.280 47.313,107.858 73.544 C 87.734 86.603,0.179 157.682,0.057 161.060 C 0.026 161.918,1.913 164.913,4.250 167.716 C 6.588 170.519,11.650 176.717,15.500 181.488 C 19.350 186.260,23.026 190.602,23.668 191.137 C 24.477 191.810,29.709 189.062,40.668 182.209 C 66.816 165.856,69.536 165.474,80.130 176.665 C 94.842 192.205,102.631 210.843,122.475 278.000 C 128.732 299.175,138.619 332.632,144.446 352.349 C 157.918 397.932,161.479 406.503,176.090 428.500 C 197.748 461.109,220.892 471.419,254.068 463.237 C 296.603 452.747,350.065 411.569,401.086 350.000 C 488.821 244.126,516.392 190.804,514.724 130.218 C 513.039 68.998,479.588 41.902,415.675 49.986"/></svg>
