<?xml version="1.0" encoding="UTF-8"?>
<!DOCTYPE svg PUBLIC "-//W3C//DTD SVG 1.1//EN" "http://www.w3.org/Graphics/SVG/1.1/DTD/svg11.dtd">
<svg width="16" height="16" viewBox="0 0 300 300" xmlns="http://www.w3.org/2000/svg" xmlns:xlink="http://www.w3.org/1999/xlink"><g><path d="M 283.65,87.615c-15.090,86.58-99.375,159.9-124.725,176.64c-25.365,16.74-48.48-6.705-56.88-24.45 C 92.445,219.6, 63.66,109.95, 56.115,100.89C 48.585,91.785, 25.965,109.95, 25.965,109.95L 15,95.31c0,0, 45.93-55.875, 80.88-62.85 c 37.050-7.395, 36.99,57.96, 45.9,94.245c 8.625,35.115, 14.415,55.215, 21.93,55.215c 7.545,0, 21.93-19.59, 37.695-49.605 c 15.795-30.045-0.675-56.565-31.53-37.71C 182.205,19.185, 298.74,1.050, 283.65,87.615z"/></g></svg>